<?xml version="1.0" encoding="utf-8"?>
<!-- Generator: Adobe Illustrator 22.1.0, SVG Export Plug-In . SVG Version: 6.00 Build 0)  -->
<svg version="1.0" id="Layer_1" xmlns="http://www.w3.org/2000/svg" xmlns:xlink="http://www.w3.org/1999/xlink" x="0px" y="0px"
	 viewBox="0 0 4000 4000" style="enable-background:new 0 0 4000 4000;" xml:space="preserve">
<style type="text/css">
	.st0{fill:url(#SVGID_1_);}
	.st1{fill:url(#SVGID_2_);}
	.st2{fill:url(#SVGID_3_);}
</style>
<g>
	<linearGradient id="SVGID_1_" gradientUnits="userSpaceOnUse" x1="939.6293" y1="2870.0742" x2="1624.6702" y2="2185.0334">
		<stop  offset="0" style="stop-color:#007bec"/>
		<stop  offset="1" style="stop-color:#0060b9"/>
	</linearGradient>
	<path class="st0" d="M1249.8,3148.3L1249.8,3148.3c192.3,79,403.3-62.4,403.3-270.4v-543.4c0-118.5-71.6-225.3-181.2-270.4
		l-403.3-165.6V2878C1068.6,2996.5,1140.2,3103.3,1249.8,3148.3z"/>
</g>
<linearGradient id="SVGID_2_" gradientUnits="userSpaceOnUse" x1="1034.194" y1="3217.1216" x2="2926.2795" y2="1325.0359">
	<stop  offset="0" style="stop-color:#007bec"/>
	<stop  offset="1" style="stop-color:#0060b9"/>
</linearGradient>
<path class="st1" d="M2550.7,1543.9c-206.8-450.5-661.6-763.6-1189.8-763.6h0C638,780.3,52,1366.3,52,2089.2v0
	c0,10.2,0.1,20.5,0.4,30.6c3.7,159.4,133,287,292.4,287h0c164.1,0,296.2-135,292-299c-0.2-6.2-0.2-12.4-0.2-18.7v0
	c0-400,324.3-724.3,724.3-724.3s724.3,324.3,724.3,724.3v0c0,12.8-0.4,25.5-1.1,38.1c0,0,0,0,0,0h458.6v0.8c0,0,0,0,0,0
	c423.7,16.5,761.7,334.1,761.7,723.5v0l0,2.5c-0.2,131.9,106.6,238.9,238.4,238.9h170.7c127.3,0,232.2-102,233.5-229.3
	c0-4,0.1-8.1,0.1-12.1v0C3947,2141.8,3325.6,1564.5,2550.7,1543.9z"/>
<linearGradient id="SVGID_3_" gradientUnits="userSpaceOnUse" x1="2126.0205" y1="3047.0388" x2="2663.929" y2="2509.1304">
	<stop  offset="0" style="stop-color:#007bec"/>
	<stop  offset="1" style="stop-color:#0060b9"/>
</linearGradient>
<path class="st2" d="M2342.6,3205L2342.6,3205c192.3,53.7,403.3-42.4,403.3-183.7v-369.2c0-80.5-71.6-153.1-181.2-183.7L2161.4,2356
	v665.3C2161.4,3101.9,2233,3174.4,2342.6,3205z"/>
</svg>
